<svg width="70" height="70" viewBox="0 0 70 70" fill="none" xmlns="http://www.w3.org/2000/svg">
<circle cx="35" cy="35" r="35" fill="#ECD5D5"/>
<path d="M44 32C44 28.8174 42.7357 25.7652 40.4853 23.5147C38.2348 21.2643 35.1826 20 32 20C28.8174 20 25.7652 21.2643 23.5147 23.5147C21.2643 25.7652 20 28.8174 20 32C20 39.4895 28.3085 47.2895 31.0985 49.6985C31.3586 49.8935 31.6749 49.9988 32 49.9985M44 50V45.5M39.5 50C39.1022 50 38.7206 49.842 38.4393 49.5607C38.158 49.2794 38 48.8978 38 48.5V42.5C38 42.2531 38.0609 42.01 38.1773 41.7923C38.2937 41.5746 38.4621 41.389 38.6675 41.252L43.1675 38.252C43.414 38.0875 43.7037 37.9998 44 37.9998C44.2963 37.9998 44.586 38.0875 44.8325 38.252L49.3325 41.252C49.5379 41.389 49.7063 41.5746 49.8227 41.7923C49.9391 42.01 50 42.2531 50 42.5V48.5C50 48.8978 49.842 49.2794 49.5607 49.5607C49.2794 49.842 48.8978 50 48.5 50H39.5ZM36.5 32C36.5 34.4853 34.4853 36.5 32 36.5C29.5147 36.5 27.5 34.4853 27.5 32C27.5 29.5147 29.5147 27.5 32 27.5C34.4853 27.5 36.5 29.5147 36.5 32Z" stroke="black" stroke-width="2" stroke-linecap="round" stroke-linejoin="round"/>
</svg>
