<svg width="70" height="70" viewBox="0 0 70 70" fill="none" xmlns="http://www.w3.org/2000/svg">
<circle cx="35" cy="35" r="35" fill="#ECD5D5"/>
<path d="M49.9991 42.5054V47.0305C50.0008 47.4506 49.9147 47.8664 49.7464 48.2513C49.5781 48.6362 49.3313 48.9818 49.0218 49.2658C48.7122 49.5498 48.3467 49.766 47.9488 49.9006C47.5508 50.0351 47.1292 50.0851 46.7108 50.0473C42.0692 49.543 37.6106 47.9569 33.6934 45.4165C30.0488 43.1007 26.9589 40.0107 24.643 36.3662C22.0938 32.4311 20.5074 27.9509 20.0122 23.2884C19.9745 22.8713 20.0241 22.4509 20.1578 22.054C20.2915 21.6571 20.5063 21.2924 20.7887 20.983C21.0711 20.6737 21.4148 20.4266 21.7979 20.2574C22.181 20.0881 22.5951 20.0005 23.0139 20.0001H27.5391C28.2712 19.9929 28.9808 20.2522 29.5359 20.7295C30.0909 21.2068 30.4534 21.8697 30.5559 22.5946C30.7469 24.0427 31.1011 25.4646 31.6118 26.8332C31.8147 27.3731 31.8586 27.9598 31.7383 28.5239C31.618 29.088 31.3386 29.6058 30.933 30.0159L29.0173 31.9315C31.1646 35.7079 34.2914 38.8346 38.0677 40.9819L39.9833 39.0662C40.3935 38.6607 40.9112 38.3812 41.4753 38.2609C42.0394 38.1406 42.6262 38.1845 43.1661 38.3874C44.5346 38.8981 45.9565 39.2523 47.4046 39.4433C48.1374 39.5467 48.8065 39.9158 49.2849 40.4803C49.7633 41.0449 50.0174 41.7656 49.9991 42.5054Z" stroke="black" stroke-linecap="round" stroke-linejoin="round"/>
</svg>
