<svg width="22" height="22" viewBox="0 0 22 22" fill="none" xmlns="http://www.w3.org/2000/svg">
<path d="M11 12.3331C10.4696 12.3331 9.96086 12.5438 9.58579 12.9189C9.21071 13.294 9 13.8027 9 14.3331V19.0171H13V14.3331C13 13.8027 12.7893 13.294 12.4142 12.9189C12.0391 12.5438 11.5304 12.3331 11 12.3331Z" fill="#695346"/>
<path d="M11.892 3.55539C11.6472 3.33501 11.3294 3.21307 11 3.21307C10.6706 3.21307 10.3528 3.33501 10.108 3.55539L3.66206 9.35686C3.24064 9.73615 3 10.2765 3 10.8434V16.8861C3 17.4519 3.22476 17.9945 3.62484 18.3946C4.02492 18.7946 4.56754 19.0194 5.13333 19.0194H7.66667V14.3334C7.66667 13.4493 8.01786 12.6015 8.64298 11.9764C9.2681 11.3512 10.1159 11.0001 11 11.0001C11.8841 11.0001 12.7319 11.3512 13.357 11.9764C13.9821 12.6015 14.3333 13.4493 14.3333 14.3334V19.0174H16.8667C17.4325 19.0174 17.9751 18.7926 18.3752 18.3926C18.7752 17.9925 19 17.4499 19 16.8841V10.8416C19 10.2745 18.7593 9.73413 18.3377 9.35484L11.892 3.55539Z" fill="#695346"/>
</svg>
