<svg width="93" height="29" viewBox="0 0 93 29" fill="none" xmlns="http://www.w3.org/2000/svg">
<g clip-path="url(#clip0_6_6)">
<path d="M6.20148 27.5217V10.7217H14.1455C16.0015 10.7217 17.6335 11.0657 19.0415 11.7537C20.4495 12.4417 21.5455 13.4097 22.3295 14.6577C23.1295 15.9057 23.5295 17.3937 23.5295 19.1217C23.5295 20.8337 23.1295 22.3217 22.3295 23.5857C21.5455 24.8337 20.4495 25.8017 19.0415 26.4897C17.6335 27.1777 16.0015 27.5217 14.1455 27.5217H6.20148ZM10.9535 23.7297H13.9535C14.9135 23.7297 15.7455 23.5537 16.4495 23.2017C17.1695 22.8337 17.7295 22.3057 18.1295 21.6177C18.5295 20.9137 18.7295 20.0817 18.7295 19.1217C18.7295 18.1457 18.5295 17.3137 18.1295 16.6257C17.7295 15.9377 17.1695 15.4177 16.4495 15.0657C15.7455 14.6977 14.9135 14.5137 13.9535 14.5137H10.9535V23.7297ZM28.9096 27.5217L24.2776 14.5137H28.5976L32.2696 25.3857H30.2056L34.0216 14.5137H37.9096L41.5816 25.3857H39.5656L43.3576 14.5137H47.3656L42.7336 27.5217H38.3176L35.1976 18.5217H36.5416L33.3256 27.5217H28.9096ZM55.2234 27.7377C53.6874 27.7377 52.3434 27.4497 51.1914 26.8737C50.0554 26.2817 49.1674 25.4817 48.5274 24.4737C47.9034 23.4497 47.5914 22.2897 47.5914 20.9937C47.5914 19.6977 47.8954 18.5457 48.5034 17.5377C49.1274 16.5137 49.9834 15.7217 51.0714 15.1617C52.1594 14.5857 53.3834 14.2977 54.7434 14.2977C56.0234 14.2977 57.1914 14.5617 58.2474 15.0897C59.3034 15.6017 60.1434 16.3617 60.7674 17.3697C61.3914 18.3777 61.7034 19.6017 61.7034 21.0417C61.7034 21.2017 61.6954 21.3857 61.6794 21.5937C61.6634 21.8017 61.6474 21.9937 61.6314 22.1697H51.3354V19.7697H59.2074L57.4794 20.4417C57.4954 19.8497 57.3834 19.3377 57.1434 18.9057C56.9194 18.4737 56.5994 18.1377 56.1834 17.8977C55.7834 17.6577 55.3114 17.5377 54.7674 17.5377C54.2234 17.5377 53.7434 17.6577 53.3274 17.8977C52.9274 18.1377 52.6154 18.4817 52.3914 18.9297C52.1674 19.3617 52.0554 19.8737 52.0554 20.4657V21.1617C52.0554 21.8017 52.1834 22.3537 52.4394 22.8177C52.7114 23.2817 53.0954 23.6417 53.5914 23.8977C54.0874 24.1377 54.6794 24.2577 55.3674 24.2577C56.0074 24.2577 56.5514 24.1697 56.9994 23.9937C57.4634 23.8017 57.9194 23.5137 58.3674 23.1297L60.7674 25.6257C60.1434 26.3137 59.3754 26.8417 58.4634 27.2097C57.5514 27.5617 56.4714 27.7377 55.2234 27.7377ZM63.8058 27.5217V9.71373H68.3658V27.5217H63.8058ZM71.3292 27.5217V9.71373H75.8892V27.5217H71.3292ZM85.3807 27.7377C83.9567 27.7377 82.6927 27.4497 81.5887 26.8737C80.4847 26.2977 79.6127 25.5057 78.9727 24.4977C78.3487 23.4737 78.0367 22.3057 78.0367 20.9937C78.0367 19.6817 78.3487 18.5217 78.9727 17.5137C79.6127 16.5057 80.4847 15.7217 81.5887 15.1617C82.6927 14.5857 83.9567 14.2977 85.3807 14.2977C86.8047 14.2977 88.0687 14.5857 89.1727 15.1617C90.2927 15.7217 91.1647 16.5057 91.7887 17.5137C92.4127 18.5217 92.7247 19.6817 92.7247 20.9937C92.7247 22.3057 92.4127 23.4737 91.7887 24.4977C91.1647 25.5057 90.2927 26.2977 89.1727 26.8737C88.0687 27.4497 86.8047 27.7377 85.3807 27.7377ZM85.3807 24.1137C85.9087 24.1137 86.3727 23.9937 86.7727 23.7537C87.1887 23.5137 87.5167 23.1617 87.7567 22.6977C87.9967 22.2177 88.1167 21.6497 88.1167 20.9937C88.1167 20.3377 87.9967 19.7857 87.7567 19.3377C87.5167 18.8737 87.1887 18.5217 86.7727 18.2817C86.3727 18.0417 85.9087 17.9217 85.3807 17.9217C84.8687 17.9217 84.4047 18.0417 83.9887 18.2817C83.5887 18.5217 83.2607 18.8737 83.0047 19.3377C82.7647 19.7857 82.6447 20.3377 82.6447 20.9937C82.6447 21.6497 82.7647 22.2177 83.0047 22.6977C83.2607 23.1617 83.5887 23.5137 83.9887 23.7537C84.4047 23.9937 84.8687 24.1137 85.3807 24.1137Z" fill="#2A1B12"/>
<line x1="1.89433" y1="28.1235" x2="1.89432" y2="7.91301" stroke="#2A1B12" stroke-width="3.78947"/>
<line y1="6.01829" x2="24" y2="6.01829" stroke="#2A1B12" stroke-width="3.78947"/>
<line y1="1.13043" x2="14.6957" y2="1.13043" stroke="#2A1B12" stroke-width="2.26087"/>
</g>
<defs>
<clipPath id="clip0_6_6">
<rect width="93" height="29" fill="white"/>
</clipPath>
</defs>
</svg>
